<svg version="1.1" xmlns="http://www.w3.org/2000/svg" xmlns:xlink="http://www.w3.org/1999/xlink" width="436" height="290"><defs/><g><g transform="translate(-582,-238) scale(1,1)"><rect fill="#C0C0C0" stroke="none" x="599" y="255" width="88" height="87" opacity="0.2"/></g><g transform="translate(-582,-238) scale(1,1)"><rect fill="#ffffff" stroke="none" x="592" y="248" width="88" height="87"/></g><g transform="translate(-582,-238) scale(1,1)"><path fill="none" stroke="#000000" d="M 592 248 L 680 248 L 680 335 L 592 335 L 592 248 Z Z" stroke-miterlimit="10"/></g><g transform="translate(-582,-238) scale(1,1)"><path fill="none" stroke="#000000" d="M 592 273 L 680 273" stroke-miterlimit="10"/></g><g transform="translate(-582,-238) scale(1,1)"><path fill="none" stroke="#000000" d="M 592 326 L 680 326" stroke-miterlimit="10"/></g><g transform="translate(-582,-238) scale(1,1)"><g><path fill="none" stroke="none"/><text fill="#000000" stroke="none" font-family="Arial" font-size="13px" font-style="normal" font-weight="bold" text-decoration="none" x="608" y="267.5">Customer</text></g></g><g transform="translate(-582,-238) scale(1,1)"><g><path fill="none" stroke="none"/><text fill="#000000" stroke="none" font-family="Arial" font-size="13px" font-style="normal" font-weight="normal" text-decoration="none" x="597" y="290.5">+id</text></g></g><g transform="translate(-582,-238) scale(1,1)"><g><path fill="none" stroke="none"/><text fill="#000000" stroke="none" font-family="Arial" font-size="13px" font-style="normal" font-weight="normal" text-decoration="none" x="597" y="305.5">+firstName</text></g></g><g transform="translate(-582,-238) scale(1,1)"><g><path fill="none" stroke="none"/><text fill="#000000" stroke="none" font-family="Arial" font-size="13px" font-style="normal" font-weight="normal" text-decoration="none" x="597" y="320.5">+lastName</text></g></g><g transform="translate(-582,-238) scale(1,1)"><rect fill="#C0C0C0" stroke="none" x="607" y="431" width="73" height="87" opacity="0.2"/></g><g transform="translate(-582,-238) scale(1,1)"><rect fill="#ffffff" stroke="none" x="600" y="424" width="73" height="87"/></g><g transform="translate(-582,-238) scale(1,1)"><path fill="none" stroke="#000000" d="M 600 424 L 673 424 L 673 511 L 600 511 L 600 424 Z Z" stroke-miterlimit="10"/></g><g transform="translate(-582,-238) scale(1,1)"><path fill="none" stroke="#000000" d="M 600 449 L 673 449" stroke-miterlimit="10"/></g><g transform="translate(-582,-238) scale(1,1)"><path fill="none" stroke="#000000" d="M 600 502 L 673 502" stroke-miterlimit="10"/></g><g transform="translate(-582,-238) scale(1,1)"><g><path fill="none" stroke="none"/><text fill="#000000" stroke="none" font-family="Arial" font-size="13px" font-style="normal" font-weight="bold" text-decoration="none" x="626.5" y="443.5">Car</text></g></g><g transform="translate(-582,-238) scale(1,1)"><g><path fill="none" stroke="none"/><text fill="#000000" stroke="none" font-family="Arial" font-size="13px" font-style="normal" font-weight="normal" text-decoration="none" x="605" y="466.5">+id</text></g></g><g transform="translate(-582,-238) scale(1,1)"><g><path fill="none" stroke="none"/><text fill="#000000" stroke="none" font-family="Arial" font-size="13px" font-style="normal" font-weight="normal" text-decoration="none" x="605" y="481.5">+brand</text></g></g><g transform="translate(-582,-238) scale(1,1)"><g><path fill="none" stroke="none"/><text fill="#000000" stroke="none" font-family="Arial" font-size="13px" font-style="normal" font-weight="normal" text-decoration="none" x="605" y="496.5">+model</text></g></g><g transform="translate(-582,-238) scale(1,1)"><path fill="none" stroke="#000000" d="M 636 336 L 636 423" stroke-miterlimit="10"/></g><g transform="translate(-582,-238) scale(1,1)"><rect fill="#C0C0C0" stroke="none" x="767" y="431" width="73" height="72" opacity="0.2"/></g><g transform="translate(-582,-238) scale(1,1)"><rect fill="#ffffff" stroke="none" x="760" y="424" width="73" height="72"/></g><g transform="translate(-582,-238) scale(1,1)"><path fill="none" stroke="#000000" d="M 760 424 L 833 424 L 833 496 L 760 496 L 760 424 Z Z" stroke-miterlimit="10"/></g><g transform="translate(-582,-238) scale(1,1)"><path fill="none" stroke="#000000" d="M 760 449 L 833 449" stroke-miterlimit="10"/></g><g transform="translate(-582,-238) scale(1,1)"><path fill="none" stroke="#000000" d="M 760 487 L 833 487" stroke-miterlimit="10"/></g><g transform="translate(-582,-238) scale(1,1)"><g><path fill="none" stroke="none"/><text fill="#000000" stroke="none" font-family="Arial" font-size="13px" font-style="normal" font-weight="bold" text-decoration="none" x="771" y="443.5">LogBook</text></g></g><g transform="translate(-582,-238) scale(1,1)"><g><path fill="none" stroke="none"/><text fill="#000000" stroke="none" font-family="Arial" font-size="13px" font-style="normal" font-weight="normal" text-decoration="none" x="765" y="466.5">+id</text></g></g><g transform="translate(-582,-238) scale(1,1)"><g><path fill="none" stroke="none"/><text fill="#000000" stroke="none" font-family="Arial" font-size="13px" font-style="normal" font-weight="normal" text-decoration="none" x="765" y="481.5">+name</text></g></g><g transform="translate(-582,-238) scale(1,1)"><path fill="none" stroke="#000000" d="M 674 465 L 759 462" stroke-miterlimit="10"/></g><g transform="translate(-582,-238) scale(1,1)"><rect fill="#C0C0C0" stroke="none" x="927" y="423" width="88" height="102" opacity="0.2"/></g><g transform="translate(-582,-238) scale(1,1)"><rect fill="#ffffff" stroke="none" x="920" y="416" width="88" height="102"/></g><g transform="translate(-582,-238) scale(1,1)"><path fill="none" stroke="#000000" d="M 920 416 L 1008 416 L 1008 518 L 920 518 L 920 416 Z Z" stroke-miterlimit="10"/></g><g transform="translate(-582,-238) scale(1,1)"><path fill="none" stroke="#000000" d="M 920 441 L 1008 441" stroke-miterlimit="10"/></g><g transform="translate(-582,-238) scale(1,1)"><path fill="none" stroke="#000000" d="M 920 509 L 1008 509" stroke-miterlimit="10"/></g><g transform="translate(-582,-238) scale(1,1)"><g><path fill="none" stroke="none"/><text fill="#000000" stroke="none" font-family="Arial" font-size="13px" font-style="normal" font-weight="bold" text-decoration="none" x="938" y="435.5">LogEntry</text></g></g><g transform="translate(-582,-238) scale(1,1)"><g><path fill="none" stroke="none"/><text fill="#000000" stroke="none" font-family="Arial" font-size="13px" font-style="normal" font-weight="normal" text-decoration="none" x="925" y="458.5">+startTime</text></g></g><g transform="translate(-582,-238) scale(1,1)"><g><path fill="none" stroke="none"/><text fill="#000000" stroke="none" font-family="Arial" font-size="13px" font-style="normal" font-weight="normal" text-decoration="none" x="925" y="473.5">+endTime</text></g></g><g transform="translate(-582,-238) scale(1,1)"><g><path fill="none" stroke="none"/><text fill="#000000" stroke="none" font-family="Arial" font-size="13px" font-style="normal" font-weight="normal" text-decoration="none" x="925" y="488.5">+startMileage</text></g></g><g transform="translate(-582,-238) scale(1,1)"><g><path fill="none" stroke="none"/><text fill="#000000" stroke="none" font-family="Arial" font-size="13px" font-style="normal" font-weight="normal" text-decoration="none" x="925" y="503.5">+endMileage</text></g></g><g transform="translate(-582,-238) scale(1,1)"><path fill="none" stroke="#000000" d="M 834 462 L 919 465" stroke-miterlimit="10"/></g><g transform="translate(-582,-238) scale(1,1)"><path fill="#FFFFFF" stroke="none" d="M 844.3048298369397 458.15156109159614 L 834 462 L 844.007872305788 466.565357807559 L 855.9863103661512 462.7759874246877"/></g><g transform="translate(-582,-238) scale(1,1)"><path fill="none" stroke="#000000" d="M 844.3048298369397 458.15156109159614 L 834 462 L 844.007872305788 466.565357807559 L 855.9863103661512 462.7759874246877 L 844.3048298369397 458.15156109159614" stroke-miterlimit="10"/></g></g></svg>